<?xml version="1.0" standalone="no"?>
<!DOCTYPE svg PUBLIC "-//W3C//DTD SVG 20010904//EN"
 "http://www.w3.org/TR/2001/REC-SVG-20010904/DTD/svg10.dtd">
<svg version="1.0" xmlns="http://www.w3.org/2000/svg"
 width="253.000000pt" height="253.000000pt" viewBox="0 0 253.000000 253.000000"
 preserveAspectRatio="xMidYMid meet">
<metadata>
Created by potrace 1.14, written by Peter Selinger 2001-2017
</metadata>
<g transform="translate(0.000000,253.000000) scale(0.100000,-0.100000)"
fill="#000000" stroke="none">
<path d="M1193 2267 c-40 -16 -83 -39 -97 -52 -14 -13 -28 -20 -31 -17 -3 4
-3 -1 0 -10 5 -14 -5 -23 -49 -44 -65 -31 -104 -66 -150 -138 -11 -18 -13 -26
-5 -21 11 6 12 5 2 -6 -7 -7 -13 -24 -13 -37 0 -16 4 -21 13 -16 9 5 9 4 1 -6
-9 -9 -7 -17 8 -32 16 -16 17 -22 6 -36 -7 -9 -8 -13 -2 -9 7 4 15 0 18 -9 4
-10 2 -13 -7 -8 -6 4 -3 -3 8 -16 11 -13 14 -20 8 -16 -7 4 -13 2 -13 -3 0 -6
4 -11 8 -11 4 0 9 -12 10 -27 1 -15 8 -30 15 -35 9 -6 8 -8 -3 -8 -12 0 -13
-2 -1 -9 8 -5 12 -19 9 -35 -3 -14 0 -34 7 -43 10 -13 10 -19 0 -29 -15 -16
-8 -67 9 -57 6 4 5 -1 -3 -10 -11 -14 -11 -18 2 -23 16 -6 17 -20 4 -41 -5 -7
-5 -13 -1 -13 4 0 0 -8 -9 -17 -15 -18 -17 -22 -17 -44 0 -5 -4 -7 -10 -4 -6
4 -7 -1 -3 -11 4 -12 3 -15 -5 -10 -8 4 -10 2 -6 -7 3 -8 -2 -17 -11 -21 -9
-3 -14 -10 -10 -15 3 -6 -3 -14 -12 -20 -11 -6 -13 -11 -5 -11 8 0 10 -5 5
-12 -4 -7 -8 -19 -9 -26 -2 -11 0 -11 13 0 15 12 15 11 4 -9 -9 -18 -9 -23 1
-23 8 0 9 -3 3 -8 -9 -6 -11 -14 -17 -64 -1 -10 -5 -18 -8 -18 -3 0 -16 -23
-30 -52 -14 -29 -41 -69 -61 -90 -20 -21 -34 -38 -32 -38 3 0 -12 -16 -33 -35
-20 -19 -33 -35 -29 -35 4 0 -11 -20 -34 -45 -22 -24 -41 -49 -41 -55 0 -6 -4
-8 -10 -5 -5 3 -10 -1 -10 -10 0 -9 -11 -27 -25 -41 -13 -13 -24 -25 -23 -27
1 -1 -6 -22 -17 -47 -10 -25 -19 -48 -21 -52 -1 -5 -2 -9 -4 -10 -5 -8 -10
-51 -12 -110 -1 -65 13 -105 33 -92 5 3 9 0 9 -7 0 -7 3 -9 7 -6 3 4 12 2 20
-4 7 -6 13 -9 13 -6 0 3 17 1 38 -5 20 -5 71 -11 112 -13 41 -2 101 -5 134 -6
54 -2 59 -5 68 -31 11 -31 35 -48 67 -48 10 0 22 -6 24 -12 4 -10 6 -10 6 0 1
9 6 10 19 4 9 -5 53 -7 97 -6 148 6 225 19 225 38 0 6 5 4 10 -4 5 -8 10 -10
10 -4 0 7 15 8 48 2 26 -5 72 -10 102 -13 30 -2 55 -5 55 -6 0 -1 42 -2 93 -3
50 -1 92 1 92 4 0 3 10 6 23 6 19 2 52 9 67 14 3 1 8 2 13 1 4 0 7 4 7 11 0 6
3 8 7 5 9 -10 58 64 57 86 -1 9 3 17 8 17 6 0 8 7 4 15 -3 8 -2 15 2 15 4 0 7
33 7 72 0 40 2 78 5 83 8 17 5 40 -5 47 -7 5 -7 8 0 8 6 0 9 18 9 40 -1 23 3
40 9 40 8 0 8 3 0 11 -8 8 -6 20 6 42 16 31 24 157 10 157 -4 0 -6 6 -6 12 3
26 -15 98 -22 93 -5 -2 -7 7 -5 20 1 14 -1 25 -4 25 -4 0 -8 15 -9 33 -2 61
-7 87 -16 87 -5 0 -4 6 2 14 8 9 8 15 1 18 -5 1 -12 13 -15 26 -2 12 -7 27
-10 32 -3 6 -1 10 5 10 6 0 8 5 4 12 -12 20 -13 98 0 98 6 0 4 5 -4 10 -8 5
-12 10 -8 10 4 0 3 14 -2 30 -5 17 -6 30 -2 30 4 0 7 11 7 25 0 14 -4 25 -8
25 -5 0 -5 6 0 13 4 6 6 23 4 36 -1 13 2 21 7 17 5 -3 8 6 6 19 -1 14 7 37 19
52 12 15 17 24 10 20 -6 -4 -14 0 -17 9 -4 11 1 18 14 21 11 3 17 10 14 15 -4
6 0 14 7 19 12 7 12 9 0 9 -11 0 -10 4 5 16 10 8 12 12 4 8 -12 -7 -13 -5 -3
8 7 8 10 18 6 21 -3 4 -1 7 5 7 7 0 12 5 12 11 0 5 -5 7 -11 3 -6 -3 -3 6 7
22 12 18 14 25 5 20 -11 -7 -13 -2 -9 23 2 17 1 31 -4 31 -5 0 -6 5 -3 10 3 6
1 10 -4 10 -6 0 -11 12 -11 26 0 14 -4 23 -10 19 -5 -3 -10 1 -10 10 0 22 -42
62 -62 59 -11 -1 -15 3 -11 12 3 8 2 14 -3 13 -14 -3 -75 27 -68 33 3 4 -4 9
-15 13 -12 3 -21 13 -21 21 0 13 -12 18 -32 15 -5 0 -8 6 -8 16 0 9 -3 14 -6
10 -4 -3 -19 0 -34 8 -15 8 -30 11 -34 8 -3 -4 -6 -1 -6 5 0 10 -25 23 -44 21
-5 0 -13 5 -17 13 -6 9 -9 10 -9 1 0 -9 -7 -10 -24 -3 -13 4 -35 7 -50 6 -15
-2 -29 0 -31 4 -3 5 -19 7 -36 6 -16 -1 -32 1 -35 5 -3 5 -12 5 -20 2 -9 -3
-20 0 -25 8 -7 11 -9 11 -9 1 0 -8 -5 -10 -12 -5 -24 14 -53 10 -125 -20z"/>
</g>
</svg>
